<?xml version="1.0" encoding="UTF-8"?>
<svg id="Camada_1" data-name="Camada 1" xmlns="http://www.w3.org/2000/svg" viewBox="0 0 691.36 545.05">
  <defs>
    <style>
      .cls-1 {
        fill: #ed5e2c;
      }

      .cls-2 {
        fill: #e8511e;
      }

      .cls-3 {
        fill: #fff;
      }
    </style>
  </defs>
  <g>
    <path class="cls-3" d="M93.94,0v19.6H24.19v35.14h60.57v19.6H24.19v49.26H0V0h93.94Z"/>
    <path class="cls-3" d="M142.32,123.6h-24.19V0h24.19v123.6Z"/>
    <path class="cls-3" d="M198.65,0l63.21,86.87V0h24.19v123.6h-25.96l-62.51-86.34v86.34h-24.19V0h25.25Z"/>
    <path class="cls-3" d="M367.11,0c38.67,0,64.63,25.96,64.63,61.8s-26.66,61.8-64.63,61.8h-51.38V0h51.38ZM367.11,103.83c23.31,0,40.44-17.83,40.44-42.02s-16.42-42.02-40.44-42.02h-27.19v84.05h27.19Z"/>
  </g>
  <g>
    <path class="cls-2" d="M228.58,143.11l-43.97,80.52v49.35h-37.1v-49.35l-43.97-80.52h41.19l21.33,45.64,21.34-45.64h41.19Z"/>
    <path class="cls-2" d="M337.95,256.37c-13.3,13.05-29.59,19.57-48.89,19.57s-35.59-6.52-48.89-19.57c-13.3-13.05-19.94-29.16-19.94-48.33s6.65-35.28,19.94-48.33c13.29-13.05,29.59-19.57,48.89-19.57s35.59,6.53,48.89,19.57c13.29,13.05,19.94,29.16,19.94,48.33s-6.65,35.28-19.94,48.33ZM266.33,230.58c6,6,13.57,9,22.73,9s16.73-3,22.73-9c6-6,9-13.51,9-22.54s-3-16.54-9-22.54c-6-6-13.58-9-22.73-9s-16.73,3-22.73,9c-6,6-9,13.51-9,22.54s3,16.54,9,22.54Z"/>
    <path class="cls-2" d="M461.04,263.14c-9.77,8.53-22.51,12.8-38.22,12.8s-28.45-4.27-38.22-12.8c-9.77-8.53-14.66-19.73-14.66-33.58v-86.45h37.1v82.37c0,9.65,5.26,14.47,15.77,14.47s15.77-4.82,15.77-14.47v-82.37h37.1v86.45c0,13.85-4.89,25.05-14.66,33.58Z"/>
    <path class="cls-2" d="M559.37,272.79l-20.59-40.82h-9.28v40.82h-37.11v-129.87h51.95c14.22,0,25.97,4.17,35.25,12.52,9.28,8.35,13.91,19.39,13.91,33.12,0,7.67-1.76,14.6-5.29,20.78-3.53,6.19-8.44,11.2-14.75,15.03l25.6,48.42h-39.7ZM529.5,177.06v24.12h14.1c3.96.12,7.08-.86,9.37-2.97,2.29-2.1,3.43-5.07,3.43-8.9s-1.14-6.83-3.43-9c-2.29-2.16-5.41-3.25-9.37-3.25h-14.1Z"/>
  </g>
  <g>
    <path class="cls-3" d="M45.84,243.85c3.25,0,4.59,1.58,4.59,3.34,0,1.22-.62,2.25-1.74,2.78,1.3.37,2.22,1.42,2.22,3,0,2.17-1.56,3.78-4.68,3.78h-6.95v-12.9h6.57ZM41.78,245.91v3.28h3.94c1.67,0,2.2-.76,2.2-1.7s-.68-1.58-2.2-1.58h-3.94ZM41.78,251.13v3.56h4.31c1.49,0,2.29-.72,2.29-1.84,0-1.18-.83-1.71-2.27-1.71h-4.33Z"/>
    <path class="cls-3" d="M61.94,251.85l.02-8h2.51l-.02,8c0,1.66,1.05,3.02,3.03,3.02s3.04-1.36,3.04-3.02l-.02-8h2.51l.02,8c0,3.32-2.57,5.1-5.54,5.1s-5.56-1.79-5.56-5.1Z"/>
    <path class="cls-3" d="M94.71,243.85v2.06l-6.88,8.77h6.88v2.06h-9.91v-2.06l6.86-8.77h-6.86v-2.06h9.91Z"/>
    <path class="cls-3" d="M115.91,243.85v2.06l-6.88,8.77h6.88v2.06h-9.91v-2.06l6.86-8.77h-6.86v-2.06h9.91Z"/>
    <path class="cls-3" d="M130.35,256.75h-2.51v-12.9h2.51v12.9Z"/>
    <path class="cls-3" d="M145.37,243.85l6.57,9.07v-9.07h2.51v12.9h-2.7l-6.49-9.01v9.01h-2.51v-12.9h2.62Z"/>
    <path class="cls-3" d="M169.36,256.75h-2.51v-12.9h2.51v12.9Z"/>
  </g>
  <rect class="cls-3" x="113.22" y="530.49" width="108.06" height="14.57"/>
  <g>
    <path class="cls-3" d="M1.47,295.5h23.46l38.33,58.98,38.5-58.98h23.46v115.65h-22.63v-79.64l-39.32,60.8-39.16-60.8v79.64H1.47v-115.65Z"/>
    <path class="cls-3" d="M208.83,293.85c34.7,0,61.79,25.94,61.79,59.15s-27.43,59.97-61.79,59.97-61.79-26.93-61.79-59.97,27.43-59.15,61.79-59.15ZM208.83,393.48c21.64,0,39.16-18.51,39.16-40.48s-17.51-39.82-39.16-39.82-39.16,17.84-39.16,39.82,17.51,40.48,39.16,40.48Z"/>
    <path class="cls-3" d="M276.74,295.5h96.49v18.5h-37.01v97.15h-22.47v-97.15h-37.01v-18.5Z"/>
    <path class="cls-3" d="M414.38,411.16h-22.63v-115.65h22.63v115.65Z"/>
    <path class="cls-3" d="M459.15,295.5l41.14,89.38,41.14-89.38h23.96l-53.04,115.65h-24.12l-53.03-115.65h23.96Z"/>
    <path class="cls-3" d="M610.34,295.5h23.63l53.2,115.65h-23.79l-10.9-23.79h-60.64l-10.9,23.79h-23.79l53.2-115.65ZM600.09,368.86h44.11l-22.14-47.91-21.97,47.91Z"/>
  </g>
  <g>
    <path class="cls-3" d="M202.74,430.94h93.44v17.92h-35.84v94.08h-21.76v-94.08h-35.84v-17.92Z"/>
    <path class="cls-3" d="M336.02,542.94h-21.92v-112h21.92v112Z"/>
    <path class="cls-3" d="M418.26,429.34c33.6,0,59.84,25.12,59.84,57.28s-26.56,58.08-59.84,58.08-59.84-26.08-59.84-58.08,26.56-57.28,59.84-57.28ZM418.26,525.82c20.96,0,37.92-17.92,37.92-39.2s-16.96-38.56-37.92-38.56-37.92,17.28-37.92,38.56,16.96,39.2,37.92,39.2Z"/>
    <path class="cls-3" d="M522.09,430.94l57.28,78.72v-78.72h21.92v112h-23.52l-56.64-78.24v78.24h-21.92v-112h22.88Z"/>
  </g>
  <g>
    <path class="cls-1" d="M561.44,457.93c.54.4,2.23,1.69,5.19,1.69,1.85,0,3-.75,3-1.95,0-3.04-9.42-1.29-9.44-6.4,0-2.07,1.75-3.87,5.68-3.87,3.36,0,5.09,1.07,5.92,1.63l-1.21,1.91c-.62-.44-2.09-1.29-4.71-1.29-2.27,0-2.92.77-2.92,1.57,0,2.82,9.44,1.03,9.44,6.28,0,2.52-2.23,4.37-5.86,4.37-3.82,0-5.82-1.55-6.36-1.95l1.27-1.99Z"/>
    <path class="cls-1" d="M584.37,461.67v-14.09h6.38c2.94,0,4.97,2.03,4.97,4.69s-1.89,4.69-4.95,4.69h-3.64v4.71h-2.76ZM587.13,454.71h3.28c1.79,0,2.66-1.07,2.66-2.44,0-1.47-.97-2.43-2.66-2.43h-3.28v4.87Z"/>
    <path class="cls-1" d="M614.45,447.38c4.23,0,7.53,3.16,7.53,7.21s-3.34,7.31-7.53,7.31-7.53-3.28-7.53-7.31,3.34-7.21,7.53-7.21ZM614.45,459.52c2.64,0,4.77-2.26,4.77-4.93s-2.13-4.85-4.77-4.85-4.77,2.17-4.77,4.85,2.13,4.93,4.77,4.93Z"/>
    <path class="cls-1" d="M634.1,461.67v-14.09h6.78c2.94,0,4.97,2.03,4.97,4.69,0,1.99-1.21,3.75-3.18,4.35l3.56,5.05h-3.14l-3.32-4.71h-2.92v4.71h-2.76ZM636.86,454.71h3.66c1.81-.02,2.68-1.07,2.68-2.44,0-1.47-.97-2.43-2.68-2.43h-3.66v4.87Z"/>
    <path class="cls-1" d="M656.67,447.58h11.76v2.26h-4.51v11.84h-2.74v-11.84h-4.51v-2.26Z"/>
    <path class="cls-1" d="M680.41,457.93c.54.4,2.23,1.69,5.19,1.69,1.85,0,3-.75,3-1.95,0-3.04-9.42-1.29-9.44-6.4,0-2.07,1.75-3.87,5.68-3.87,3.36,0,5.09,1.07,5.92,1.63l-1.21,1.91c-.62-.44-2.09-1.29-4.71-1.29-2.27,0-2.92.77-2.92,1.57,0,2.82,9.44,1.03,9.44,6.28,0,2.52-2.23,4.37-5.86,4.37-3.82,0-5.82-1.55-6.36-1.95l1.27-1.99Z"/>
  </g>
  <path class="cls-3" d="M639.44,534.08c-2.73,2.73-6.04,4.09-9.95,4.09s-7.22-1.36-9.95-4.09c-2.73-2.73-4.09-6.04-4.09-9.95s1.36-7.22,4.09-9.95c2.73-2.73,6.04-4.09,9.95-4.09s7.22,1.36,9.95,4.09c2.73,2.73,4.09,6.04,4.09,9.95s-1.36,7.22-4.09,9.95Z"/>
</svg>